<svg
              width="57.5714111328125"
              height="56.67449951171875"
              viewBox="0 0 57.5714111328125 56.67449951171875"
              fill="none"
            >
              <g
                opacity="1"
                transform="translate(0.0001220703125 0)  rotate(0)"
              >
                <g
                  opacity="1"
                  transform="translate(7.3863525390625 1.88970947265625)  rotate(0)"
                >
                  <path
                    id="Vector"
                    fillRule="evenodd"
                    fill="#FFFFFF"
                    opacity="1"
                    d="M1.28125 23.0799C1.28125 24.5799 1.86125 26.0299 2.90125 27.1599L8.46125 33.1399C9.95125 34.7599 12.7712 33.7599 12.7712 31.6099L12.7712 12.9999C12.7712 10.8499 9.95125 9.84992 8.46125 11.4699L2.90125 17.4499C1.86125 18.5799 1.28125 20.0299 1.28125 21.5299L1.28125 23.0799Z"
                  ></path>
                  <g opacity="1" transform="translate(0 0)  rotate(0)">
                    <path
                      id="Vector"
                      fillRule="evenodd"
                      fill="#3984FD"
                      opacity="1"
                      d="M0 29.85C0 38.1 7.08 44.78 15.82 44.78L31.65 44.78C40.39 44.78 47.47 38.1 47.47 29.85L47.47 14.93C47.47 6.68 40.39 0 31.65 0L15.82 0C7.08 0 0 6.68 0 14.93L0 29.85Z"
                    ></path>
                  </g>
                </g>
                <path
                  id="Vector"
                  fillRule="evenodd"
                  fill="#FFFFFF"
                  opacity="1"
                  d="M21.2033 11.5212C22.3662 12.5154 21.9781 15.17 20.039 19.4851C18.2545 23.4193 16.4634 27.3611 14.6724 31.3029C13.0894 35.9094 13.2866 39.0644 15.2629 40.7538C18.4553 43.483 24.7719 43.9888 34.2192 42.2638C43.3064 40.6521 49.2614 38.3492 52.0776 35.3627C55.8426 31.3587 56.0267 27.8192 52.6234 24.7519C48.0494 20.5917 42.7343 20.3763 36.6576 24.1144C37.8154 24.499 38.801 25.039 39.6143 25.7343C41.3321 27.2028 41.3125 28.7647 39.5488 30.4276C38.5002 31.4388 36.3625 32.4004 33.1358 33.3125C29.9015 34.2181 27.9341 34.3649 27.2196 33.7541C26.3075 32.9744 26.8684 30.6254 28.896 26.7147C29.4563 25.536 31.0925 22.6986 33.8048 18.2024C36.3158 14.0341 36.1447 10.9409 33.2992 8.92931C32.1038 8.06532 29.6129 7.5935 25.8262 7.51384C23.0105 7.51427 20.1719 7.49521 17.317 7.44905L17.2498 10.7595C19.6277 11.0557 20.9448 11.3002 21.2033 11.5212Z"
                ></path>
              </g>
            </svg>